Coordinates
version=1
nRows=10
nColumns=34
inDegrees=yes

Units are S.I. units (second, meters, Newtons, ...)
If the header above contains a line with 'inDegrees', this indicates whether rotational values are in degrees (yes) or radians (no).

endheader
time	pelvis_tilt	pelvis_list	pelvis_rotation	pelvis_tx	pelvis_ty	pelvis_tz	hip_flexion_r	hip_adduction_r	hip_rotation_r	knee_angle_r	ankle_angle_r	subtalar_angle_r	mtp_angle_r	hip_flexion_l	hip_adduction_l	hip_rotation_l	knee_angle_l	ankle_angle_l	subtalar_angle_l	mtp_angle_l	lumbar_extension	lumbar_bending	lumbar_rotation	arm_flex_r	arm_add_r	arm_rot_r	elbow_flex_r	pro_sup_r	arm_flex_l	arm_add_l	arm_rot_l	elbow_flex_l	pro_sup_l
      4.36666670	     -9.88726878	     -2.38857560	     -0.98189929	      0.72422322	      0.92424418	     -0.12143851	     17.16426787	     -5.10223251	    -17.77498180	     19.73044298	     10.49694019	      2.03866508	      0.00000000	     18.86249818	    -13.78844612	    -10.01893769	     21.44534871	     10.37036252	      6.64783501	      0.00000000	    -18.90118065	      3.07694616	      1.21881351	     13.00476592	    -16.60623538	     35.94812218	     13.84977394	     67.95512544	     11.07410549	    -16.14373897	     31.82175276	     21.26600806	     52.93167562
      4.38333330	     -9.72079776	     -2.52191678	     -1.00934523	      0.73482577	      0.93209310	     -0.11931793	     14.76673024	     -4.06938952	    -17.44727000	     16.20918155	      8.78303387	      2.14136964	      0.00000000	     16.39660216	    -13.42465314	     -9.72366606	     18.09651582	      8.81416705	      6.43241406	      0.00000000	    -16.56987200	      3.18804480	      1.40099914	      9.50788756	    -16.76813624	     36.16617236	     13.07311543	     67.70900281	      8.01665161	    -16.32090711	     31.93109009	     21.37386068	     52.84334643
      4.40000000	     -8.95946040	     -2.56794648	     -0.72670042	      0.73692321	      0.93616907	     -0.12034746	     11.79367189	     -3.22580605	    -16.41926153	     12.72624290	      7.12452345	      0.85615796	      0.00000000	     13.71979253	    -12.83032458	     -8.57746744	     15.06715236	      7.21122347	      4.65864293	      0.00000000	    -15.58600883	      3.32811923	      1.50607824	      6.45041960	    -17.08171517	     35.90649915	     13.21336907	     66.71267025	      5.21976265	    -16.76504502	     31.43413244	     23.32505475	     52.47932164
      4.41666670	     -8.73376685	     -2.63409406	     -0.51675804	      0.73831256	      0.93553930	     -0.12040384	      9.94525373	     -2.55304361	    -15.29680263	     10.02240420	      5.72390196	     -0.31049455	      0.00000000	     12.09270850	    -12.34786420	     -7.29181161	     12.73371729	      5.75475492	      3.10593038	      0.00000000	    -14.23507401	      3.54745299	      1.18174870	      3.77747032	    -17.75812491	     34.87396816	     14.49609044	     65.08681057	      2.03883016	    -17.31544820	     29.84193019	     26.02581703	     51.84306508
      4.43333330	     -8.34762449	     -2.66345744	     -0.32105592	      0.74197419	      0.93636160	     -0.11888958	      8.09647159	     -1.99378081	    -14.43199556	      7.59684193	      4.89000023	     -1.05171005	      0.00000000	     10.41533278	    -11.99088604	     -6.37981160	     10.70612552	      4.87469928	      2.05027957	      0.00000000	    -13.18671721	      3.73500510	      0.56513220	      1.54709011	    -18.28949973	     33.32929313	     16.32631824	     63.16117567	     -0.95013595	    -17.84217331	     27.53664649	     28.63254748	     51.15419148
      4.45000000	     -7.95734991	     -2.66979734	     -0.18876166	      0.74856196	      0.93688512	     -0.11835967	      6.32471766	     -1.54099142	    -13.77038005	      5.58190004	      4.44338655	     -1.43991754	      0.00000000	      8.78210352	    -11.74929593	     -5.72955035	      8.92193841	      4.06580829	      0.94993969	      0.00000000	    -12.09834266	      3.77940183	      0.07922436	     -0.72151552	    -18.77051725	     31.84580259	     17.98557846	     61.48645192	     -3.79475826	    -18.16874420	     25.42833329	     30.96086405	     50.70259882
      4.46666670	     -7.49205545	     -2.72119061	     -0.19653909	      0.75147915	      0.93620987	     -0.11770540	      4.80904029	     -1.11925639	    -13.02064878	      4.06532045	      4.15441224	     -2.34323189	      0.00000000	      7.31123056	    -11.59589425	     -5.01061247	      7.61938326	      3.81967852	     -0.09134600	      0.00000000	    -11.27856526	      3.89756682	     -0.45276332	     -2.63702254	    -19.29832015	     30.60065887	     19.77886463	     60.20293078	     -6.23372334	    -18.31599845	     23.70402616	     32.88623373	     50.46354040
      4.48333330	     -6.99419723	     -2.74516911	     -0.10060659	      0.75407822	      0.93391780	     -0.11805822	      3.44292972	     -0.81986845	    -12.25421760	      2.92871610	      4.02191877	     -3.11459828	      0.00000000	      6.02943733	    -11.45221591	     -4.40212002	      6.61224424	      3.58688473	     -1.20130772	      0.00000000	    -10.57392988	      3.93500675	     -0.75561083	     -4.57639638	    -19.86914810	     29.61538638	     21.48576449	     59.19058265	     -8.28382125	    -18.37033639	     22.15948559	     34.81719862	     50.37610851
      4.50000000	     -6.71130364	     -2.72326604	     -0.10775517	      0.75800752	      0.93438268	     -0.11803233	      2.41960422	     -0.72287157	    -12.02949213	      2.17672761	      4.16587471	     -3.29863096	      0.00000000	      5.00850937	    -11.31633030	     -4.16210212	      5.79752227	      3.96503096	     -1.41984753	      0.00000000	     -9.41210202	      3.95275660	     -1.02872592	     -5.98791873	    -20.17456326	     29.55724490	     21.50965035	     59.09949073	     -9.59946790	    -18.12138125	     22.15469740	     34.81565578	     50.37973135
      4.51666670	     -5.96730506	     -2.68647373	      0.01192143	      0.75826186	      0.93122904	     -0.11766765	      1.00333811	     -0.58200862	    -11.09400492	      1.32727278	      3.53420845	     -4.83792117	      0.00000000	      3.73104460	    -11.16968143	     -3.21733608	      5.19198398	      3.75284258	     -2.93763757	      0.00000000	     -9.59231953	      3.95909508	     -1.26391879	     -7.42466031	    -20.92270958	     29.05630128	     24.13693622	     58.65312643	    -10.85019387	    -18.04780230	     21.26086436	     36.23457473	     50.35860573
